<svg width="15" height="16" viewBox="0 0 15 16" fill="none" xmlns="http://www.w3.org/2000/svg">
<path d="M7.5 14.8851C3.79375 14.8851 0.78125 11.8726 0.78125 8.16638C0.78125 4.46013 3.79375 1.44763 7.5 1.44763C11.2063 1.44763 14.2188 4.46013 14.2188 8.16638C14.2188 11.8726 11.2063 14.8851 7.5 14.8851ZM7.5 2.38513C4.3125 2.38513 1.71875 4.97888 1.71875 8.16638C1.71875 11.3539 4.3125 13.9476 7.5 13.9476C10.6875 13.9476 13.2813 11.3539 13.2813 8.16638C13.2813 4.97888 10.6875 2.38513 7.5 2.38513Z" fill="white"/>
<path d="M9.81875 10.6226C9.7375 10.6226 9.65625 10.6039 9.58125 10.5539L7.64375 9.39764C7.1625 9.11014 6.80625 8.47889 6.80625 7.92264V5.36014C6.80625 5.10389 7.01875 4.89139 7.275 4.89139C7.53125 4.89139 7.74375 5.10389 7.74375 5.36014V7.92264C7.74375 8.14764 7.93125 8.47889 8.125 8.59139L10.0625 9.74764C10.2875 9.87889 10.3563 10.1664 10.225 10.3914C10.1313 10.5414 9.975 10.6226 9.81875 10.6226Z" fill="white" fill-opacity="0.6"/>
</svg>
