<svg width="139" height="137" viewBox="0 0 139 137" fill="none" xmlns="http://www.w3.org/2000/svg">
<circle cx="70.8334" cy="68.5241" r="62.4068" stroke="#E5E5EF" stroke-width="10.1395"/>
<mask id="path-2-inside-1_1_1483" fill="white">
<path d="M69.5 6.02545C69.5 3.07306 71.8969 0.65854 74.8407 0.882822C82.076 1.43405 89.1889 3.10292 95.9141 5.83759C104.288 9.24283 111.898 14.234 118.307 20.526C124.716 26.8181 129.801 34.2879 133.269 42.5089C136.738 50.7298 138.523 59.541 138.523 68.4394C138.523 77.3377 136.738 86.1489 133.269 94.3699C129.801 102.591 124.716 110.061 118.307 116.353C111.898 122.645 104.288 127.636 95.9141 131.041C89.1889 133.776 82.076 135.445 74.8407 135.996C71.8968 136.22 69.5 133.806 69.5 130.853C69.5 127.901 71.8982 125.533 74.8386 125.266C80.6423 124.741 86.3429 123.361 91.7464 121.163C98.7993 118.296 105.208 114.092 110.606 108.793C116.004 103.493 120.286 97.2022 123.207 90.2784C126.129 83.3546 127.633 75.9337 127.633 68.4394C127.633 60.9451 126.129 53.5241 123.207 46.6003C120.286 39.6765 116.004 33.3853 110.606 28.0861C105.208 22.7868 98.7993 18.5832 91.7464 15.7153C86.343 13.5181 80.6423 12.1378 74.8386 11.6124C71.8982 11.3461 69.5 8.97783 69.5 6.02545Z"/>
</mask>
<path d="M69.5 6.02545C69.5 3.07306 71.8969 0.65854 74.8407 0.882822C82.076 1.43405 89.1889 3.10292 95.9141 5.83759C104.288 9.24283 111.898 14.234 118.307 20.526C124.716 26.8181 129.801 34.2879 133.269 42.5089C136.738 50.7298 138.523 59.541 138.523 68.4394C138.523 77.3377 136.738 86.1489 133.269 94.3699C129.801 102.591 124.716 110.061 118.307 116.353C111.898 122.645 104.288 127.636 95.9141 131.041C89.1889 133.776 82.076 135.445 74.8407 135.996C71.8968 136.22 69.5 133.806 69.5 130.853C69.5 127.901 71.8982 125.533 74.8386 125.266C80.6423 124.741 86.3429 123.361 91.7464 121.163C98.7993 118.296 105.208 114.092 110.606 108.793C116.004 103.493 120.286 97.2022 123.207 90.2784C126.129 83.3546 127.633 75.9337 127.633 68.4394C127.633 60.9451 126.129 53.5241 123.207 46.6003C120.286 39.6765 116.004 33.3853 110.606 28.0861C105.208 22.7868 98.7993 18.5832 91.7464 15.7153C86.343 13.5181 80.6423 12.1378 74.8386 11.6124C71.8982 11.3461 69.5 8.97783 69.5 6.02545Z" stroke="#0771DE" stroke-width="20.279" stroke-linecap="round" stroke-linejoin="round" mask="url(#path-2-inside-1_1_1483)"/>
<circle cx="71.0774" cy="68.423" r="40.8718" transform="rotate(135 71.0774 68.423)" stroke="#E5E5EF" stroke-width="8.87205"/>
<mask id="path-4-inside-2_1_1483" fill="white">
<path d="M111.622 68.2795C114.324 68.2545 116.546 70.4576 116.23 73.141C115.451 79.7616 113.227 86.1783 109.693 91.9268C105.292 99.0867 99.0273 104.934 91.5857 108.828C84.1441 112.723 75.8121 114.514 67.5019 114.007C60.8395 113.6 54.3969 111.728 48.6237 108.548C46.2567 107.245 45.7477 104.161 47.3181 101.962C48.875 99.7823 51.8884 99.3028 54.2704 100.529C58.5903 102.752 63.3531 104.065 68.2679 104.365C74.8115 104.765 81.3721 103.354 87.2317 100.287C93.0912 97.221 98.0239 92.6168 101.49 86.979C104.119 82.7021 105.827 77.9553 106.525 73.0471C106.895 70.4411 108.99 68.3038 111.622 68.2795Z"/>
</mask>
<path d="M111.622 68.2795C114.324 68.2545 116.546 70.4576 116.23 73.141C115.451 79.7616 113.227 86.1783 109.693 91.9268C105.292 99.0867 99.0273 104.934 91.5857 108.828C84.1441 112.723 75.8121 114.514 67.5019 114.007C60.8395 113.6 54.3969 111.728 48.6237 108.548C46.2567 107.245 45.7477 104.161 47.3181 101.962C48.875 99.7823 51.8884 99.3028 54.2704 100.529C58.5903 102.752 63.3531 104.065 68.2679 104.365C74.8115 104.765 81.3721 103.354 87.2317 100.287C93.0912 97.221 98.0239 92.6168 101.49 86.979C104.119 82.7021 105.827 77.9553 106.525 73.0471C106.895 70.4411 108.99 68.3038 111.622 68.2795Z" stroke="#FDB841" stroke-width="17.9955" stroke-linecap="round" stroke-linejoin="round" mask="url(#path-4-inside-2_1_1483)"/>
<path d="M60.0986 65.4453V55.375H58.6001V53.6993H61.9515V65.4453H60.0986ZM64.9583 53.667H72.0478V55.2783H66.6501V58.4847C67.0851 57.9046 68.0358 57.4213 69.0831 57.4213C71.9672 57.4213 72.8534 59.5642 72.8534 61.3366C72.8534 63.6729 71.5161 65.4453 68.793 65.4453C66.3762 65.4453 64.9744 64.108 64.7005 62.2711H66.4889C66.7306 63.2701 67.5685 63.9146 68.8092 63.9146C70.3882 63.9146 71.0971 62.8351 71.0971 61.3849C71.0971 59.8543 70.3398 58.9842 68.8092 58.9842C67.7296 58.9842 67.0046 59.5803 66.6984 60.4504H64.9583V53.667ZM76.7474 59.3064C75.7484 58.8069 75.0716 57.9691 75.0716 56.664C75.0716 54.956 76.3445 53.4898 78.9387 53.4898C81.5328 53.4898 82.8057 54.9722 82.8057 56.664C82.8057 57.9207 82.0806 58.8392 81.13 59.3064C82.3223 59.7576 83.1118 60.8049 83.1118 62.2067C83.1118 64.3497 81.3717 65.7353 78.9387 65.7353C76.5218 65.7353 74.7816 64.3497 74.7816 62.2067C74.7816 60.7888 75.5711 59.7415 76.7474 59.3064ZM78.9387 58.7264C80.1632 58.7264 81.0494 57.953 81.0494 56.8895C81.0494 55.6811 80.2277 55.0205 78.9387 55.0205C77.6819 55.0205 76.844 55.665 76.844 56.9057C76.844 57.9691 77.7141 58.7264 78.9387 58.7264ZM78.9387 60.1121C77.5852 60.1121 76.5379 60.7727 76.5379 62.1422C76.5379 63.3346 77.4402 64.2046 78.9387 64.2046C80.421 64.2046 81.3072 63.3185 81.3072 62.1422C81.3072 60.821 80.3243 60.1121 78.9387 60.1121Z" fill="#1C1C28"/>
<path d="M60.7435 83.8376C60.7435 83.7324 60.8074 83.6797 60.9352 83.6797H61.1721C61.4202 83.6797 61.6232 83.6684 61.7811 83.6459C61.9391 83.6233 62.0669 83.5745 62.1646 83.4993C62.2624 83.4241 62.33 83.3113 62.3676 83.1609C62.4052 83.018 62.424 82.8225 62.424 82.5744V77.5779C62.424 77.5177 62.4428 77.4689 62.4804 77.4313C62.518 77.3862 62.5669 77.3636 62.6271 77.3636H63.1797C63.2324 77.3636 63.2775 77.3862 63.3151 77.4313C63.3527 77.4689 63.3715 77.5177 63.3715 77.5779V82.5067C63.3715 82.7624 63.3564 83.003 63.3263 83.2286C63.3038 83.4541 63.2436 83.6572 63.1459 83.8376C62.9955 84.1008 62.785 84.285 62.5143 84.3903C62.2511 84.4956 61.9015 84.5482 61.4653 84.5482C61.4277 84.5482 61.345 84.5444 61.2172 84.5369C61.0969 84.5294 60.9992 84.5181 60.924 84.5031C60.8488 84.488 60.7999 84.4655 60.7773 84.4354C60.7548 84.4128 60.7435 84.3752 60.7435 84.3226V83.8376ZM62.4128 75.0515C62.4128 74.9763 62.4391 74.9161 62.4917 74.871C62.5443 74.8259 62.6045 74.8033 62.6722 74.8033H63.1684C63.2361 74.8033 63.2925 74.8259 63.3376 74.871C63.3903 74.9161 63.4166 74.9763 63.4166 75.0515V75.6605C63.4166 75.7282 63.3903 75.7846 63.3376 75.8297C63.2925 75.8748 63.2324 75.8974 63.1572 75.8974H62.6722C62.597 75.8974 62.5331 75.8748 62.4804 75.8297C62.4353 75.7846 62.4128 75.7282 62.4128 75.6605V75.0515ZM65.2927 73.6642C65.2927 73.604 65.3115 73.5514 65.3491 73.5063C65.3942 73.4611 65.4469 73.4386 65.507 73.4386H66.0597C66.1198 73.4386 66.1687 73.4611 66.2063 73.5063C66.2439 73.5514 66.2627 73.604 66.2627 73.6642V80.2848C66.2627 80.4352 66.2777 80.5555 66.3078 80.6457C66.3454 80.7284 66.3943 80.7924 66.4544 80.8375C66.5221 80.8826 66.6011 80.9127 66.6913 80.9277C66.789 80.9427 66.8981 80.9503 67.0184 80.9503H67.3003V81.9202H66.7702C66.5296 81.9202 66.3191 81.9014 66.1386 81.8638C65.9582 81.8187 65.804 81.7435 65.6762 81.6383C65.5484 81.5255 65.4506 81.3789 65.383 81.1984C65.3228 81.0179 65.2927 80.7848 65.2927 80.4991V73.6642ZM67.2279 81.9202C67.1227 81.9202 67.0324 81.909 66.9572 81.8864C66.882 81.8563 66.8444 81.815 66.8444 81.7623V81.0969C66.8444 81.0518 66.882 81.0179 66.9572 80.9954C67.0324 80.9653 67.1227 80.9503 67.2279 80.9503H68.5137V77.1831C68.5137 77.0328 68.6002 76.935 68.7731 76.8899C69.0137 76.8222 69.2694 76.7771 69.5401 76.7546C69.8108 76.732 70.0927 76.7207 70.386 76.7207C71.183 76.7207 71.8109 76.8974 72.2695 77.2508C72.7357 77.6042 72.9688 78.1757 72.9688 78.9652V79.1344C72.9688 79.7961 72.8335 80.36 72.5628 80.8262C72.2996 81.2924 71.8898 81.6044 71.3334 81.7623C71.2206 81.7999 71.0853 81.83 70.9274 81.8526C70.7695 81.8676 70.604 81.8826 70.4311 81.8977C70.2657 81.9052 70.0965 81.9127 69.9235 81.9202C69.7581 81.9202 69.604 81.9202 69.4611 81.9202V82.2022C69.4611 82.7661 69.5513 83.1835 69.7318 83.4541C69.9123 83.7324 70.2544 83.8715 70.7582 83.8715C71.2469 83.8715 71.5778 83.7436 71.7507 83.488C71.9237 83.2323 72.0176 82.8263 72.0327 82.2699C72.0327 82.2398 72.0327 82.1947 72.0327 82.1345C72.0402 82.0744 72.044 82.0105 72.044 81.9428C72.0515 81.8826 72.059 81.8225 72.0665 81.7623C72.074 81.7022 72.0816 81.6608 72.0891 81.6383C72.1643 81.3601 72.3109 81.1721 72.5289 81.0743C72.6342 81.0217 72.7583 80.9879 72.9011 80.9728C73.044 80.9578 73.2019 80.9503 73.3749 80.9503H73.8486V81.9202H73.6117C73.4914 81.9202 73.3598 81.9202 73.217 81.9202C73.0816 81.9278 72.9914 81.9353 72.9463 81.9428L72.935 82.3601C72.9124 83.1421 72.7357 83.7361 72.4049 84.1422C72.074 84.5557 71.5289 84.7625 70.7695 84.7625C70.3333 84.7625 69.9687 84.7061 69.6754 84.5933C69.3897 84.4805 69.1604 84.3151 68.9874 84.097C68.8145 83.8865 68.6904 83.6271 68.6152 83.3188C68.5475 83.018 68.5137 82.6759 68.5137 82.2924V81.9202H67.2279ZM70.3634 80.9503C70.9574 80.9503 71.3823 80.8036 71.6379 80.5104C71.8936 80.2096 72.0214 79.781 72.0214 79.2246V79.0216C72.0214 78.7509 71.98 78.5253 71.8973 78.3449C71.8221 78.1644 71.7131 78.0215 71.5703 77.9163C71.4349 77.8035 71.2657 77.7245 71.0627 77.6794C70.8672 77.6343 70.6454 77.6117 70.3973 77.6117C70.1942 77.6117 70.0251 77.6155 69.8897 77.623C69.7544 77.6305 69.6115 77.6456 69.4611 77.6681V80.9503H70.3634ZM76.1275 83.2173C76.1275 83.1421 76.1538 83.0819 76.2064 83.0368C76.2591 82.9917 76.3192 82.9692 76.3869 82.9692H76.8719C76.9396 82.9692 76.9997 82.9917 77.0524 83.0368C77.105 83.0819 77.1313 83.1421 77.1313 83.2173V83.8263C77.1313 83.8865 77.105 83.9391 77.0524 83.9843C76.9997 84.0369 76.9396 84.0632 76.8719 84.0632H76.3869C76.3192 84.0632 76.2591 84.0369 76.2064 83.9843C76.1538 83.9391 76.1275 83.8865 76.1275 83.8263V83.2173ZM73.398 81.0969C73.398 81.0518 73.4356 81.0179 73.5108 80.9954C73.586 80.9653 73.6762 80.9503 73.7815 80.9503H79.0149L78.6088 79.9803L78.3494 79.3825C78.1013 78.811 77.7704 78.3862 77.3569 78.108C76.9508 77.8223 76.3944 77.6794 75.6876 77.6794C75.6575 77.6794 75.6087 77.6832 75.541 77.6907C75.4808 77.6907 75.4094 77.6945 75.3267 77.702C75.2515 77.7095 75.1726 77.717 75.0898 77.7245C75.0147 77.7245 74.947 77.7283 74.8868 77.7358C74.7214 77.7508 74.6387 77.6982 74.6387 77.5779V77.1155C74.6387 77.0553 74.6537 77.0102 74.6838 76.9801C74.7139 76.9425 74.7703 76.9162 74.853 76.9012C75.0184 76.8636 75.2026 76.8373 75.4057 76.8222C75.6162 76.8072 75.7891 76.7997 75.9245 76.7997C76.3004 76.7997 76.6538 76.8373 76.9847 76.9125C77.3155 76.9801 77.6276 77.1117 77.9208 77.3072C78.2141 77.4952 78.4848 77.7584 78.7329 78.0967C78.981 78.4276 79.2141 78.8562 79.4322 79.3825L79.545 79.6758L80.0187 80.8826C80.0337 80.9352 80.045 80.9879 80.0525 81.0405C80.0676 81.0931 80.0751 81.1608 80.0751 81.2435V81.6495C80.0751 81.7323 80.0525 81.7999 80.0074 81.8526C79.9623 81.8977 79.8758 81.9202 79.748 81.9202H73.7815C73.6687 81.9202 73.5785 81.9052 73.5108 81.8751C73.4356 81.8375 73.398 81.7999 73.398 81.7623V81.0969Z" fill="#6B7181"/>
</svg>
